<mxfile host="app.diagrams.net" agent="Mozilla/5.0 (X11; Linux x86_64) AppleWebKit/537.36 (KHTML, like Gecko) Chrome/139.0.0.0 Safari/537.36" version="28.1.0">
  <diagram name="Page-1" id="SuchcN2-s7vNtTMdPzC5">
    <mxGraphModel dx="1215" dy="807" grid="1" gridSize="10" guides="1" tooltips="1" connect="1" arrows="1" fold="1" page="1" pageScale="1" pageWidth="850" pageHeight="1100" math="1" shadow="0">
      <root>
        <mxCell id="0" />
        <mxCell id="1" parent="0" />
        <mxCell id="YvqN4q2227awARsNp3hQ-1" value="" style="rounded=1;whiteSpace=wrap;html=1;arcSize=8;fillColor=#d5e8d4;strokeColor=#82b366;" parent="1" vertex="1">
          <mxGeometry x="140" y="130" width="295" height="170" as="geometry" />
        </mxCell>
        <mxCell id="YvqN4q2227awARsNp3hQ-2" value="$$C_{t-1}$$" style="text;html=1;align=center;verticalAlign=middle;whiteSpace=wrap;rounded=0;" parent="1" vertex="1">
          <mxGeometry x="110" y="130" width="30" height="30" as="geometry" />
        </mxCell>
        <mxCell id="YvqN4q2227awARsNp3hQ-10" style="edgeStyle=orthogonalEdgeStyle;rounded=0;orthogonalLoop=1;jettySize=auto;html=1;entryX=0.5;entryY=1;entryDx=0;entryDy=0;endArrow=none;endFill=0;strokeWidth=2;" parent="1" target="YvqN4q2227awARsNp3hQ-8" edge="1">
          <mxGeometry relative="1" as="geometry">
            <mxPoint x="120" y="280" as="sourcePoint" />
            <mxPoint x="330" y="265" as="targetPoint" />
            <Array as="points">
              <mxPoint x="350" y="280" />
            </Array>
          </mxGeometry>
        </mxCell>
        <mxCell id="YvqN4q2227awARsNp3hQ-3" value="$$h_{t-1}$$" style="text;html=1;align=left;verticalAlign=middle;whiteSpace=wrap;rounded=0;" parent="1" vertex="1">
          <mxGeometry x="110" y="250" width="30" height="30" as="geometry" />
        </mxCell>
        <mxCell id="YvqN4q2227awARsNp3hQ-13" style="edgeStyle=orthogonalEdgeStyle;rounded=0;orthogonalLoop=1;jettySize=auto;html=1;exitX=0.5;exitY=0;exitDx=0;exitDy=0;endArrow=none;endFill=0;curved=1;strokeWidth=2;" parent="1" edge="1">
          <mxGeometry relative="1" as="geometry">
            <mxPoint x="172.5" y="280.01" as="targetPoint" />
            <mxPoint x="157.5" y="310.01" as="sourcePoint" />
            <Array as="points">
              <mxPoint x="157.5" y="280.01" />
            </Array>
          </mxGeometry>
        </mxCell>
        <mxCell id="YvqN4q2227awARsNp3hQ-4" value="$$x_t$$" style="text;html=1;align=center;verticalAlign=middle;whiteSpace=wrap;rounded=0;" parent="1" vertex="1">
          <mxGeometry x="143" y="310" width="30" height="10" as="geometry" />
        </mxCell>
        <mxCell id="YvqN4q2227awARsNp3hQ-14" style="edgeStyle=orthogonalEdgeStyle;rounded=0;orthogonalLoop=1;jettySize=auto;html=1;exitX=0.5;exitY=1;exitDx=0;exitDy=0;endArrow=none;endFill=0;strokeWidth=2;" parent="1" source="YvqN4q2227awARsNp3hQ-5" edge="1">
          <mxGeometry relative="1" as="geometry">
            <mxPoint x="180" y="280" as="targetPoint" />
          </mxGeometry>
        </mxCell>
        <mxCell id="YvqN4q2227awARsNp3hQ-20" style="edgeStyle=orthogonalEdgeStyle;rounded=0;orthogonalLoop=1;jettySize=auto;html=1;exitX=0.5;exitY=0;exitDx=0;exitDy=0;entryX=0;entryY=0.5;entryDx=0;entryDy=0;curved=1;strokeWidth=2;" parent="1" target="YvqN4q2227awARsNp3hQ-18" edge="1">
          <mxGeometry relative="1" as="geometry">
            <mxPoint x="230" y="240.00000000000006" as="sourcePoint" />
            <Array as="points">
              <mxPoint x="230" y="205" />
            </Array>
          </mxGeometry>
        </mxCell>
        <mxCell id="YvqN4q2227awARsNp3hQ-26" style="edgeStyle=orthogonalEdgeStyle;rounded=0;orthogonalLoop=1;jettySize=auto;html=1;exitX=0.5;exitY=0;exitDx=0;exitDy=0;entryX=0.5;entryY=1;entryDx=0;entryDy=0;strokeWidth=2;" parent="1" source="YvqN4q2227awARsNp3hQ-5" target="YvqN4q2227awARsNp3hQ-25" edge="1">
          <mxGeometry relative="1" as="geometry" />
        </mxCell>
        <mxCell id="YvqN4q2227awARsNp3hQ-5" value="$$\sigma$$" style="rounded=0;whiteSpace=wrap;html=1;fillColor=#fff2cc;strokeColor=#d6b656;" parent="1" vertex="1">
          <mxGeometry x="160" y="240" width="40" height="20" as="geometry" />
        </mxCell>
        <mxCell id="YvqN4q2227awARsNp3hQ-16" style="edgeStyle=orthogonalEdgeStyle;rounded=0;orthogonalLoop=1;jettySize=auto;html=1;exitX=0.5;exitY=1;exitDx=0;exitDy=0;endArrow=none;endFill=0;strokeWidth=2;" parent="1" source="YvqN4q2227awARsNp3hQ-6" edge="1">
          <mxGeometry relative="1" as="geometry">
            <mxPoint x="280.016393442623" y="280" as="targetPoint" />
          </mxGeometry>
        </mxCell>
        <mxCell id="YvqN4q2227awARsNp3hQ-6" value="$$\tanh$$" style="rounded=0;whiteSpace=wrap;html=1;fillColor=#fff2cc;strokeColor=#d6b656;" parent="1" vertex="1">
          <mxGeometry x="260" y="240" width="40" height="20" as="geometry" />
        </mxCell>
        <mxCell id="YvqN4q2227awARsNp3hQ-15" style="edgeStyle=orthogonalEdgeStyle;rounded=0;orthogonalLoop=1;jettySize=auto;html=1;exitX=0.5;exitY=1;exitDx=0;exitDy=0;endArrow=none;endFill=0;strokeWidth=2;" parent="1" source="YvqN4q2227awARsNp3hQ-7" edge="1">
          <mxGeometry relative="1" as="geometry">
            <mxPoint x="230.01639344262298" y="280" as="targetPoint" />
          </mxGeometry>
        </mxCell>
        <mxCell id="YvqN4q2227awARsNp3hQ-19" style="edgeStyle=orthogonalEdgeStyle;rounded=0;orthogonalLoop=1;jettySize=auto;html=1;exitX=0.5;exitY=0;exitDx=0;exitDy=0;entryX=0.5;entryY=1;entryDx=0;entryDy=0;endArrow=classic;endFill=1;strokeWidth=2;" parent="1" target="YvqN4q2227awARsNp3hQ-18" edge="1">
          <mxGeometry relative="1" as="geometry">
            <mxPoint x="280" y="240.00000000000006" as="sourcePoint" />
          </mxGeometry>
        </mxCell>
        <mxCell id="YvqN4q2227awARsNp3hQ-7" value="$$\sigma$$" style="rounded=0;whiteSpace=wrap;html=1;fillColor=#fff2cc;strokeColor=#d6b656;" parent="1" vertex="1">
          <mxGeometry x="210" y="240" width="40" height="20" as="geometry" />
        </mxCell>
        <mxCell id="YvqN4q2227awARsNp3hQ-37" style="edgeStyle=orthogonalEdgeStyle;rounded=0;orthogonalLoop=1;jettySize=auto;html=1;exitX=0.5;exitY=0;exitDx=0;exitDy=0;entryX=0;entryY=0.5;entryDx=0;entryDy=0;strokeWidth=2;curved=1;" parent="1" source="YvqN4q2227awARsNp3hQ-8" target="YvqN4q2227awARsNp3hQ-36" edge="1">
          <mxGeometry relative="1" as="geometry" />
        </mxCell>
        <mxCell id="YvqN4q2227awARsNp3hQ-8" value="$$\sigma$$" style="rounded=0;whiteSpace=wrap;html=1;fillColor=#fff2cc;strokeColor=#d6b656;" parent="1" vertex="1">
          <mxGeometry x="330" y="240" width="40" height="20" as="geometry" />
        </mxCell>
        <mxCell id="YvqN4q2227awARsNp3hQ-18" value="⨉" style="ellipse;whiteSpace=wrap;html=1;aspect=fixed;fillColor=#f8cecc;strokeColor=#b85450;" parent="1" vertex="1">
          <mxGeometry x="265" y="190" width="30" height="30" as="geometry" />
        </mxCell>
        <mxCell id="YvqN4q2227awARsNp3hQ-21" value="$$i_t$$" style="text;html=1;align=center;verticalAlign=middle;whiteSpace=wrap;rounded=0;" parent="1" vertex="1">
          <mxGeometry x="215" y="190" width="30" height="30" as="geometry" />
        </mxCell>
        <mxCell id="YvqN4q2227awARsNp3hQ-22" value="$$\tilde{C}_t$$" style="text;html=1;align=right;verticalAlign=middle;whiteSpace=wrap;rounded=0;" parent="1" vertex="1">
          <mxGeometry x="245" y="210" width="30" height="30" as="geometry" />
        </mxCell>
        <mxCell id="YvqN4q2227awARsNp3hQ-23" style="edgeStyle=orthogonalEdgeStyle;rounded=0;orthogonalLoop=1;jettySize=auto;html=1;exitX=0.5;exitY=0;exitDx=0;exitDy=0;entryX=0.5;entryY=1;entryDx=0;entryDy=0;endArrow=classic;endFill=1;strokeWidth=2;" parent="1" edge="1">
          <mxGeometry relative="1" as="geometry">
            <mxPoint x="280" y="190" as="sourcePoint" />
            <mxPoint x="280" y="170" as="targetPoint" />
          </mxGeometry>
        </mxCell>
        <mxCell id="YvqN4q2227awARsNp3hQ-24" value="＋" style="ellipse;whiteSpace=wrap;html=1;aspect=fixed;fillColor=#f8cecc;strokeColor=#b85450;" parent="1" vertex="1">
          <mxGeometry x="265" y="140" width="30" height="30" as="geometry" />
        </mxCell>
        <mxCell id="YvqN4q2227awARsNp3hQ-31" style="edgeStyle=orthogonalEdgeStyle;rounded=0;orthogonalLoop=1;jettySize=auto;html=1;exitX=1;exitY=0.5;exitDx=0;exitDy=0;entryX=0;entryY=0.5;entryDx=0;entryDy=0;strokeWidth=2;endArrow=none;endFill=0;" parent="1" source="YvqN4q2227awARsNp3hQ-25" target="YvqN4q2227awARsNp3hQ-24" edge="1">
          <mxGeometry relative="1" as="geometry" />
        </mxCell>
        <mxCell id="YvqN4q2227awARsNp3hQ-25" value="⨉" style="ellipse;whiteSpace=wrap;html=1;aspect=fixed;fillColor=#f8cecc;strokeColor=#b85450;" parent="1" vertex="1">
          <mxGeometry x="165" y="140" width="30" height="30" as="geometry" />
        </mxCell>
        <mxCell id="YvqN4q2227awARsNp3hQ-27" value="$$f_t$$" style="text;html=1;align=right;verticalAlign=middle;whiteSpace=wrap;rounded=0;" parent="1" vertex="1">
          <mxGeometry x="150" y="190" width="30" height="30" as="geometry" />
        </mxCell>
        <mxCell id="YvqN4q2227awARsNp3hQ-30" value="" style="endArrow=none;html=1;rounded=0;entryX=0;entryY=0.5;entryDx=0;entryDy=0;strokeWidth=2;" parent="1" target="YvqN4q2227awARsNp3hQ-25" edge="1">
          <mxGeometry width="50" height="50" relative="1" as="geometry">
            <mxPoint x="120" y="155" as="sourcePoint" />
            <mxPoint x="220" y="170" as="targetPoint" />
          </mxGeometry>
        </mxCell>
        <mxCell id="YvqN4q2227awARsNp3hQ-33" value="$$C_{t}$$" style="text;html=1;align=center;verticalAlign=middle;whiteSpace=wrap;rounded=0;" parent="1" vertex="1">
          <mxGeometry x="430" y="125" width="30" height="30" as="geometry" />
        </mxCell>
        <mxCell id="YvqN4q2227awARsNp3hQ-34" value="" style="endArrow=none;html=1;rounded=0;strokeWidth=2;" parent="1" edge="1">
          <mxGeometry width="50" height="50" relative="1" as="geometry">
            <mxPoint x="340" y="260" as="sourcePoint" />
            <mxPoint x="320" y="155" as="targetPoint" />
            <Array as="points">
              <mxPoint x="340" y="270" />
              <mxPoint x="320" y="270" />
            </Array>
          </mxGeometry>
        </mxCell>
        <mxCell id="YvqN4q2227awARsNp3hQ-43" style="edgeStyle=orthogonalEdgeStyle;rounded=0;orthogonalLoop=1;jettySize=auto;html=1;exitX=0.5;exitY=1;exitDx=0;exitDy=0;strokeWidth=2;flowAnimation=0;" parent="1" source="YvqN4q2227awARsNp3hQ-36" edge="1">
          <mxGeometry relative="1" as="geometry">
            <mxPoint x="460" y="280" as="targetPoint" />
            <Array as="points">
              <mxPoint x="395" y="280" />
            </Array>
          </mxGeometry>
        </mxCell>
        <mxCell id="YvqN4q2227awARsNp3hQ-36" value="⨉" style="ellipse;whiteSpace=wrap;html=1;aspect=fixed;fillColor=#f8cecc;strokeColor=#b85450;" parent="1" vertex="1">
          <mxGeometry x="380" y="190" width="30" height="30" as="geometry" />
        </mxCell>
        <mxCell id="YvqN4q2227awARsNp3hQ-38" value="$$o_t$$" style="text;html=1;align=center;verticalAlign=middle;whiteSpace=wrap;rounded=0;" parent="1" vertex="1">
          <mxGeometry x="335" y="190" width="30" height="30" as="geometry" />
        </mxCell>
        <mxCell id="YvqN4q2227awARsNp3hQ-41" style="edgeStyle=orthogonalEdgeStyle;rounded=0;orthogonalLoop=1;jettySize=auto;html=1;exitX=0.5;exitY=0;exitDx=0;exitDy=0;endArrow=none;endFill=0;strokeWidth=2;" parent="1" source="YvqN4q2227awARsNp3hQ-40" edge="1">
          <mxGeometry relative="1" as="geometry">
            <mxPoint x="395" y="154" as="targetPoint" />
          </mxGeometry>
        </mxCell>
        <mxCell id="YvqN4q2227awARsNp3hQ-42" style="edgeStyle=orthogonalEdgeStyle;rounded=0;orthogonalLoop=1;jettySize=auto;html=1;exitX=0.5;exitY=1;exitDx=0;exitDy=0;entryX=0.5;entryY=0;entryDx=0;entryDy=0;endArrow=none;endFill=0;strokeWidth=2;" parent="1" source="YvqN4q2227awARsNp3hQ-40" target="YvqN4q2227awARsNp3hQ-36" edge="1">
          <mxGeometry relative="1" as="geometry" />
        </mxCell>
        <mxCell id="YvqN4q2227awARsNp3hQ-40" value="$$\tanh$$" style="ellipse;whiteSpace=wrap;html=1;fillColor=#f8cecc;strokeColor=#b85450;" parent="1" vertex="1">
          <mxGeometry x="375" y="160" width="40" height="25" as="geometry" />
        </mxCell>
        <mxCell id="YvqN4q2227awARsNp3hQ-44" value="$$h_{t}$$" style="text;html=1;align=center;verticalAlign=middle;whiteSpace=wrap;rounded=0;" parent="1" vertex="1">
          <mxGeometry x="430" y="250" width="30" height="30" as="geometry" />
        </mxCell>
        <mxCell id="YvqN4q2227awARsNp3hQ-46" style="edgeStyle=orthogonalEdgeStyle;rounded=0;orthogonalLoop=1;jettySize=auto;html=1;startArrow=classic;startFill=1;endArrow=none;endFill=0;strokeWidth=2;" parent="1" edge="1">
          <mxGeometry relative="1" as="geometry">
            <mxPoint x="420" y="280" as="targetPoint" />
            <mxPoint x="420" y="115" as="sourcePoint" />
          </mxGeometry>
        </mxCell>
        <mxCell id="YvqN4q2227awARsNp3hQ-45" value="$$h_{t}$$" style="text;html=1;align=center;verticalAlign=middle;whiteSpace=wrap;rounded=0;" parent="1" vertex="1">
          <mxGeometry x="385" y="100" width="30" height="30" as="geometry" />
        </mxCell>
        <mxCell id="YvqN4q2227awARsNp3hQ-47" value="" style="rounded=0;whiteSpace=wrap;html=1;fillColor=#d5e8d4;strokeColor=none;" parent="1" vertex="1">
          <mxGeometry x="416" y="151" width="7.33" height="8.5" as="geometry" />
        </mxCell>
        <mxCell id="YvqN4q2227awARsNp3hQ-32" style="edgeStyle=orthogonalEdgeStyle;rounded=0;orthogonalLoop=1;jettySize=auto;html=1;exitX=1;exitY=0.5;exitDx=0;exitDy=0;strokeWidth=2;" parent="1" source="YvqN4q2227awARsNp3hQ-24" edge="1">
          <mxGeometry relative="1" as="geometry">
            <mxPoint x="460" y="155" as="targetPoint" />
          </mxGeometry>
        </mxCell>
      </root>
    </mxGraphModel>
  </diagram>
</mxfile>
